<svg width="17" height="23" viewBox="0 0 17 23" fill="none" xmlns="http://www.w3.org/2000/svg">
<g clip-path="url(#clip0_5_3927)">
<path d="M2.58536 5.27722C2.58536 5.27722 2.98484 4.86704 3.78381 4.04668C4.58277 3.22632 6.12363 2.81614 8.40637 2.81614C10.6891 2.81614 12.6295 3.6365 14.2274 5.27722C15.8253 6.91795 16.6243 8.90822 16.6243 11.248V17.7967C16.6243 18.5671 16.3532 19.2305 15.811 19.787C15.2689 20.3434 14.6269 20.6216 13.885 20.6216H11.1457V13.0885H14.7838V11.248C14.7838 9.42184 14.1632 7.87385 12.9219 6.60407C11.6807 5.33429 10.1755 4.6994 8.40637 4.6994C6.63724 4.6994 5.13206 5.33429 3.89081 6.60407C2.64957 7.87385 2.02894 9.42184 2.02894 11.248V13.0885H5.66708V20.6216H2.92778C2.18588 20.6216 1.54386 20.3434 1.00171 19.787C0.459553 19.2305 0.188477 18.5671 0.188477 17.7967V11.248C0.188477 8.90822 0.987439 6.91795 2.58536 5.27722Z" fill="black"/>
</g>
<defs>
<clipPath id="clip0_5_3927">
<rect width="16.5" height="22" fill="white" transform="matrix(1 0 0 -1 0.15625 22.7188)"/>
</clipPath>
</defs>
</svg>
