<svg width="19" height="19" viewBox="0 0 19 19" fill="none" xmlns="http://www.w3.org/2000/svg">
<path d="M9.6875 4.48633C7.0625 4.48633 4.9707 6.61914 4.9707 9.20312C4.9707 11.8281 7.0625 13.9199 9.6875 13.9199C12.2715 13.9199 14.4043 11.8281 14.4043 9.20312C14.4043 6.61914 12.2715 4.48633 9.6875 4.48633ZM9.6875 12.2793C8.00586 12.2793 6.61133 10.9258 6.61133 9.20312C6.61133 7.52148 7.96484 6.16797 9.6875 6.16797C11.3691 6.16797 12.7227 7.52148 12.7227 9.20312C12.7227 10.9258 11.3691 12.2793 9.6875 12.2793ZM15.6758 4.32227C15.6758 3.70703 15.1836 3.21484 14.5684 3.21484C13.9531 3.21484 13.4609 3.70703 13.4609 4.32227C13.4609 4.9375 13.9531 5.42969 14.5684 5.42969C15.1836 5.42969 15.6758 4.9375 15.6758 4.32227ZM18.793 5.42969C18.7109 3.95312 18.3828 2.64062 17.3164 1.57422C16.25 0.507812 14.9375 0.179688 13.4609 0.0976562C11.9434 0.015625 7.39062 0.015625 5.87305 0.0976562C4.39648 0.179688 3.125 0.507812 2.01758 1.57422C0.951172 2.64062 0.623047 3.95312 0.541016 5.42969C0.458984 6.94727 0.458984 11.5 0.541016 13.0176C0.623047 14.4941 0.951172 15.7656 2.01758 16.873C3.125 17.9395 4.39648 18.2676 5.87305 18.3496C7.39062 18.4316 11.9434 18.4316 13.4609 18.3496C14.9375 18.2676 16.25 17.9395 17.3164 16.873C18.3828 15.7656 18.7109 14.4941 18.793 13.0176C18.875 11.5 18.875 6.94727 18.793 5.42969ZM16.8242 14.6172C16.5371 15.4375 15.8809 16.0527 15.1016 16.3809C13.8711 16.873 11 16.75 9.6875 16.75C8.33398 16.75 5.46289 16.873 4.27344 16.3809C3.45312 16.0527 2.83789 15.4375 2.50977 14.6172C2.01758 13.4277 2.14062 10.5566 2.14062 9.20312C2.14062 7.89062 2.01758 5.01953 2.50977 3.78906C2.83789 3.00977 3.45312 2.39453 4.27344 2.06641C5.46289 1.57422 8.33398 1.69727 9.6875 1.69727C11 1.69727 13.8711 1.57422 15.1016 2.06641C15.8809 2.35352 16.4961 3.00977 16.8242 3.78906C17.3164 5.01953 17.1934 7.89062 17.1934 9.20312C17.1934 10.5566 17.3164 13.4277 16.8242 14.6172Z" fill="#969696"/>
</svg>
