<svg width="23" height="23" viewBox="0 0 23 23" fill="none" xmlns="http://www.w3.org/2000/svg">
<rect x="0.421875" y="0.75" width="22" height="22" rx="11" fill="#8E8B8C"/>
<g clip-path="url(#clip0_5_4137)">
<path d="M5.95449 8.68076V16.2285H7.9911V8.68076H5.95449ZM12.1677 8.6814C12.88 8.6814 14.9515 8.97023 14.9515 11.5433V16.2285H12.7942V11.4769C12.7942 10.9198 12.4786 10.5306 11.7952 10.5306C10.6609 10.5306 10.7357 11.4769 10.7357 11.4769V16.2285H8.68819V8.68076H10.7357V9.27772C11.0501 9.03692 11.4219 8.6814 12.1677 8.6814ZM5.93262 6.96536C5.93262 6.39713 6.39363 5.93612 6.96186 5.93612C7.53008 5.93612 7.9911 6.39713 7.9911 6.96536C7.9911 7.53358 7.53008 7.9946 6.96186 7.9946C6.39363 7.9946 5.93262 7.53358 5.93262 6.96536Z" fill="white"/>
</g>
<defs>
<clipPath id="clip0_5_4137">
<rect width="11" height="11" fill="white" transform="matrix(1 0 0 -1 5.92188 16.25)"/>
</clipPath>
</defs>
</svg>
