<svg width="21" height="21" viewBox="0 0 21 21" fill="none" xmlns="http://www.w3.org/2000/svg">
<g clip-path="url(#clip0_5_4008)">
<path d="M10.2813 0.937424C15.7932 0.937424 20.2618 5.40487 20.2618 10.9179C20.2618 16.4298 15.7932 20.8984 10.2813 20.8984C4.7694 20.8984 0.300781 16.4298 0.300781 10.9179C0.300781 5.40604 4.7694 0.937424 10.2813 0.937424ZM12.3534 13.1799L7.75731 10.9593C7.75887 10.9316 7.76121 10.9031 7.76121 10.8754L12.3522 8.6575C12.6618 8.89064 13.0446 9.03021 13.4614 9.03021C14.4793 9.03021 15.3051 8.20565 15.3051 7.18655C15.3051 6.16705 14.4793 5.34249 13.4614 5.34249C12.4446 5.34249 11.6185 6.16861 11.6185 7.18655V7.18772L7.06764 9.38577C6.75185 9.13509 6.3538 8.98421 5.91988 8.98421C4.90195 8.98421 4.07583 9.80994 4.07583 10.8283C4.07583 11.8462 4.90195 12.6719 5.91988 12.6719C6.28792 12.6719 6.62983 12.5624 6.91793 12.3764L11.6201 14.6493V14.6505C11.6201 15.67 12.4446 16.4945 13.4626 16.4945C14.4805 16.4945 15.3066 15.6688 15.3066 14.6505C15.3066 13.6314 14.4805 12.8068 13.4626 12.8068C13.0458 12.8068 12.6618 12.9464 12.3534 13.1799Z" fill="#8E8B8C"/>
</g>
<defs>
<clipPath id="clip0_5_4008">
<rect width="20" height="20" fill="white" transform="matrix(1 0 0 -1 0.28125 20.9375)"/>
</clipPath>
</defs>
</svg>
