<svg width="23" height="17" viewBox="0 0 23 17" fill="none" xmlns="http://www.w3.org/2000/svg">
<path d="M22.3926 2.83008C22.1465 1.8457 21.3672 1.06641 20.4238 0.820312C18.6602 0.328125 11.6875 0.328125 11.6875 0.328125C11.6875 0.328125 4.67383 0.328125 2.91016 0.820312C1.9668 1.06641 1.1875 1.8457 0.941406 2.83008C0.449219 4.55273 0.449219 8.24414 0.449219 8.24414C0.449219 8.24414 0.449219 11.8945 0.941406 13.6582C1.1875 14.6426 1.9668 15.3809 2.91016 15.627C4.67383 16.0781 11.6875 16.0781 11.6875 16.0781C11.6875 16.0781 18.6602 16.0781 20.4238 15.627C21.3672 15.3809 22.1465 14.6426 22.3926 13.6582C22.8848 11.8945 22.8848 8.24414 22.8848 8.24414C22.8848 8.24414 22.8848 4.55273 22.3926 2.83008ZM9.39062 11.5664V4.92188L15.2148 8.24414L9.39062 11.5664Z" fill="#969696"/>
</svg>
