<svg width="75" height="6" viewBox="0 0 75 6" fill="none" xmlns="http://www.w3.org/2000/svg">
<mask id="mask0_5_3253" style="mask-type:alpha" maskUnits="userSpaceOnUse" x="0" y="0" width="75" height="6">
<g clip-path="url(#clip0_5_3253)">
<path d="M57.2153 3.26172C57.2227 3.27503 57.2271 3.28981 57.2282 3.30502C57.2232 3.2991 57.2194 3.29219 57.2172 3.28473C57.215 3.27728 57.2143 3.26944 57.2153 3.26172Z" fill="black"/>
<path d="M51.0791 3.29665L51.1497 3.32023C51.0985 3.31472 51.0857 3.30683 51.0791 3.29665Z" fill="black"/>
<path d="M60.8964 3.30601C60.8964 3.30601 60.8962 3.29977 60.8877 3.2959L61.1472 3.29726L60.8964 3.30601Z" fill="black"/>
<path d="M45.3896 3.22949L45.4721 3.23287C45.4446 3.23539 45.4169 3.23426 45.3896 3.22949Z" fill="black"/>
<path d="M51.0145 3.05101C50.9823 3.03227 50.9463 3.02106 50.9092 3.01822C50.9612 3.01537 51.001 3.02127 51.0145 3.05101Z" fill="black"/>
<path d="M62.85 2.62402L62.748 2.68697C62.7491 2.65672 62.7847 2.63152 62.85 2.62402Z" fill="black"/>
<path d="M64.1211 1.42225C64.1264 1.42134 64.1318 1.42115 64.1371 1.42169C64.1372 1.42469 64.1302 1.42393 64.1211 1.42225Z" fill="black"/>
<path d="M64.7022 2.29466C64.6826 2.32655 64.661 2.35723 64.6377 2.38651C64.6592 2.34513 64.6729 2.29047 64.7022 2.29466Z" fill="black"/>
<path d="M64.6045 2.41379L64.6375 2.37305C64.6238 2.39853 64.6151 2.41967 64.6045 2.41379Z" fill="black"/>
<path d="M11.2066 3.45854C11.1033 3.4558 11.0017 3.43167 10.9082 3.3877L11.2066 3.45854Z" fill="black"/>
<path d="M36.8354 3.15967L36.8572 3.18392C36.8369 3.17562 36.8336 3.16773 36.8354 3.15967Z" fill="black"/>
<path d="M11.054 3.05029L10.9785 3.06647C11.0025 3.05642 11.0281 3.05093 11.054 3.05029Z" fill="black"/>
<path d="M60.905 2.50976C60.7986 2.44576 60.5789 2.50865 60.5821 2.4502C60.6951 2.465 60.8562 2.42499 60.905 2.50976Z" fill="black"/>
<path d="M35.0319 1.55034L34.9609 1.54761C34.9846 1.54634 35.0084 1.54726 35.0319 1.55034Z" fill="black"/>
<path d="M11.0547 3.05235L11.1416 3.03369C11.1342 3.04514 11.1259 3.05589 11.1166 3.06582C11.097 3.0575 11.076 3.05294 11.0547 3.05235Z" fill="black"/>
<path d="M27.4375 3.30853L27.5767 3.32659C27.5296 3.33558 27.4808 3.32925 27.4375 3.30853Z" fill="black"/>
<path d="M10.9085 3.40544L10.7383 3.3645C10.7967 3.37009 10.854 3.38387 10.9085 3.40544Z" fill="black"/>
<path d="M22.3457 3.34275C22.3676 3.34198 22.3894 3.34122 22.4105 3.34882C22.3887 3.35087 22.3667 3.34881 22.3457 3.34275Z" fill="black"/>
<path d="M51.3545 3.03282C51.3711 3.03224 51.3928 3.02523 51.4114 3.02145C51.4182 3.0358 51.4143 3.04531 51.3545 3.03282Z" fill="black"/>
<path d="M48.0745 1.96776C47.9815 1.97124 47.8901 1.94282 47.8154 1.88721C47.908 1.88708 47.9984 1.91518 48.0745 1.96776Z" fill="black"/>
<path d="M47.4531 1.91048L47.4842 1.90419C47.4742 1.90786 47.4637 1.90998 47.4531 1.91048Z" fill="black"/>
<path d="M51.2539 1.91841C51.2543 1.92039 51.2543 1.92241 51.2541 1.92441L51.2539 1.91841Z" fill="black"/>
<path d="M50.5076 1.88818C50.4854 1.90103 50.4609 1.90966 50.4355 1.91362C50.4576 1.90028 50.4821 1.89163 50.5076 1.88818Z" fill="black"/>
<path d="M38.5075 1.31436C39.219 1.34265 40.1406 1.448 40.8452 1.42756C41.0348 1.51024 41.2397 1.55241 41.4465 1.55138L41.4703 1.42761L41.6572 1.46901C41.7341 1.43194 41.5136 1.44485 41.6485 1.39846L41.719 1.47623C41.7341 1.43194 42.2005 1.45212 41.8868 1.35889L42.6164 1.36883C42.7777 1.3632 42.7095 1.46977 42.8879 1.44582C42.9242 1.41018 42.8245 1.41991 42.8386 1.37566C43.3733 1.29239 43.4547 1.62607 43.9531 1.57741L43.9108 1.56013C43.9954 1.59469 44.1568 1.59322 44.1585 1.61087C44.0941 1.73502 44.0696 1.54208 43.9169 1.61306C43.9288 1.71683 44.1055 1.67315 44.0957 1.75267C44.2122 1.71631 44.281 1.77746 44.3823 1.78538C44.5562 1.72201 44.8048 1.77063 44.9354 1.69209C45.0421 1.76988 45.1662 1.82029 45.2969 1.83888C45.4285 1.75927 45.267 1.7597 45.4452 1.72951L45.4734 1.79104C45.6191 1.78595 45.5965 1.76694 45.5913 1.73795C45.7476 1.73874 45.7204 1.82409 45.9161 1.78912L45.8098 1.7272C45.944 1.74752 46.0801 1.7529 46.2156 1.74324C46.2144 1.70786 46.13 1.70872 46.0709 1.71704C46.1814 1.62879 46.2579 1.76052 46.317 1.7522C46.3002 1.77884 46.1599 1.7879 46.2276 1.84909C46.3315 1.84025 46.4391 1.93652 46.5116 1.86626L46.4053 1.80538C46.6155 1.85743 46.5122 1.88395 46.7554 1.86608C46.7427 1.86132 46.7485 1.84653 46.7438 1.83315C46.8946 1.91436 47.0934 1.84803 47.3174 1.8475L47.2751 1.83022C47.3655 1.85311 47.4143 1.90871 47.4632 1.90492C47.3351 1.93753 47.3701 1.9561 47.3575 2.0128C47.5271 1.91519 47.6139 2.13512 47.8902 2.08171C47.889 2.04633 47.8208 2.00287 47.7439 2.03786C47.6518 1.93688 47.6402 1.84352 47.4728 1.79207C47.5779 1.81861 47.6993 1.83521 47.6749 1.79126L47.7064 1.88809C47.7701 1.89212 47.8198 1.88413 47.8679 1.88871C47.894 1.95031 47.7389 1.98593 47.8853 2.02875C48.0501 2.06363 47.9746 1.93186 48.0001 1.97577C48.2267 2.01891 48.0922 2.07674 48.3154 2.05436C48.2932 2.04576 48.251 2.02848 48.2325 2.03746C48.3896 2.00176 48.6179 2.0636 48.666 1.94939C48.6432 1.9231 48.6388 1.88783 48.5797 1.89615L48.5803 1.91384C48.4095 1.82499 48.724 1.94008 48.6713 1.8346C48.6579 1.89654 48.8816 1.88873 48.9792 1.88011L48.9473 1.94999C49.2749 2.17193 48.932 1.80883 49.2562 1.84543C49.4664 1.89852 49.1776 1.86276 49.3035 1.91671C49.4331 1.88036 49.5685 1.86892 49.7024 1.88299C49.7598 1.85598 49.8774 1.82166 49.8881 1.7421C50.0123 1.77736 50.2675 1.71635 50.338 1.79619C50.1234 1.85682 50.1265 1.70669 49.8757 1.804L49.9441 1.88288C50.1145 1.90155 50.2861 1.90844 50.4574 1.90351C50.4329 1.91791 50.4222 1.93808 50.4374 1.95526C50.6169 2.0131 50.8035 2.04619 50.9919 2.05362C51.0249 1.98371 50.8856 1.9917 50.7811 1.98285C50.9366 1.93053 50.9426 1.98346 51.1828 1.96882C51.1962 1.90688 51.0213 1.96821 50.9951 1.90661L51.2597 1.93383C51.2591 1.9297 51.2589 1.92551 51.2593 1.92135C51.2962 2.02424 51.4611 1.9143 51.6229 1.95345C52.0068 1.96505 52.0628 2.10687 52.2743 2.19742C52.3317 2.17145 52.3496 2.14582 52.3257 2.11853C52.2303 2.16145 52.2477 2.12125 52.2156 2.09737C52.3453 2.11263 52.501 2.00509 52.4296 1.9607C52.6392 1.99714 52.3543 2.01334 52.4796 2.0496L52.762 2.05224C52.7274 2.1045 52.6276 2.11215 52.7729 2.15604C52.8868 2.16918 53.0016 2.17319 53.1161 2.16802C53.0933 2.14173 53.1686 2.08909 53.0477 2.0881C53.0888 2.07563 53.1321 2.0725 53.1745 2.07896C53.2169 2.08541 53.2573 2.10127 53.2928 2.12539C53.1161 2.16802 53.5802 2.18099 53.4475 2.25855L53.6242 2.21592C53.5836 2.21734 53.5802 2.17995 53.519 2.18833C53.5704 2.10944 53.6627 2.21562 53.7287 2.22581C53.7907 2.21219 53.9522 2.21072 53.9657 2.18003C54.0018 2.19196 54.0402 2.1955 54.078 2.19039C54.1157 2.18528 54.1518 2.17166 54.1834 2.15055C54.2654 2.16956 54.1853 2.20362 54.2123 2.22976L54.4937 2.23244C54.5098 2.18812 54.5357 2.06531 54.4945 2.04696C54.6002 2.09223 54.5293 2.18014 54.6908 2.18075C54.6002 2.09119 54.9055 2.12116 54.7736 2.01429C54.9358 1.96316 55.1088 1.95712 55.2741 1.99681C55.3621 2.06875 55.1169 2.02939 55.1235 2.10001C55.5302 2.14102 55.5485 2.33625 55.8499 2.31427L55.7723 2.33052C55.8692 2.34321 55.962 2.37773 56.0436 2.43149C55.9947 2.34255 56.2607 2.20511 56.5671 2.23609C56.5916 2.28108 56.3937 2.31299 56.442 2.38423L56.6449 2.40528C56.6603 2.39953 56.6379 2.38365 56.6114 2.37103C56.793 2.40949 56.9538 2.27051 57.0033 2.37505L57.1918 2.25491L57.1176 2.30647C57.142 2.35041 57.3459 2.37142 57.3872 2.38978C57.4521 2.41386 57.5214 2.42368 57.5905 2.41857C57.6595 2.41346 57.7266 2.39355 57.7873 2.36018C57.7499 2.39482 57.6567 2.46893 57.8211 2.4934C57.8235 2.35162 58.1667 2.45528 58.164 2.37724C58.2298 2.38223 58.3493 2.34368 58.3545 2.40184L58.3462 2.31357C58.3578 2.43715 58.5997 2.44225 58.7841 2.47227C58.747 2.30374 58.987 2.49436 59.0735 2.34652C59.1046 2.46108 59.4007 2.40594 59.4301 2.50389C59.5722 2.5156 59.5612 2.40971 59.5986 2.37507L59.6637 2.42072C59.828 2.37918 59.9961 2.35412 60.1654 2.3459L60.3097 2.45234L60.3666 2.40972C60.3894 2.43601 60.512 2.45673 60.434 2.49071L60.5141 2.48791C60.518 2.59718 60.6258 2.52256 60.784 2.57643C60.822 2.56051 60.8127 2.53375 60.7819 2.51711C60.8612 2.51955 60.8289 2.46234 60.8736 2.42744C60.8161 2.45341 61.1549 2.63641 60.9374 2.67525C60.9213 2.71958 61.0445 2.75695 61.1252 2.74163L61.176 2.64608L61.2663 2.75441C61.3889 2.7741 61.4431 2.7149 61.5428 2.70725C61.4383 2.69631 61.3274 2.5064 61.5854 2.5224C61.4899 2.50207 61.3978 2.46809 61.312 2.4215C61.3661 2.41961 61.3939 2.41135 61.3101 2.36635C61.5136 2.40613 61.3769 2.42966 61.5787 2.45178C61.5704 2.36351 61.6279 2.33754 61.8053 2.31572L61.6719 2.37455C61.6775 2.3852 61.6861 2.39396 61.6967 2.39973C61.6459 2.40672 61.6318 2.42075 61.6204 2.45345C61.66 2.45207 61.8517 2.57248 61.8864 2.52022C61.6825 2.64924 62.2385 2.64024 62.1018 2.72107C62.1246 2.74736 62.2656 2.75807 62.2807 2.71482C62.1136 2.64252 62.4097 2.61863 62.3794 2.55614C62.4418 2.58313 62.2461 2.61705 62.3296 2.65269C62.4117 2.65243 62.492 2.62826 62.5606 2.58315L62.5193 2.56584L62.6744 2.53021C62.6999 2.57412 62.5237 2.60111 62.6663 2.62738C62.7042 2.60939 62.8468 2.63462 62.8424 2.59935C62.7747 2.53817 62.825 2.45827 62.7036 2.44167C62.8081 2.45052 63.1211 2.46252 62.9937 2.54406L63.1133 2.53988C63.0386 2.57688 62.8273 2.64156 63.0684 2.65502L63.0678 2.63733L63.2357 2.70335L63.3081 2.65707C63.3089 2.67892 63.3336 2.69993 63.3949 2.69779C63.4107 2.67119 63.4697 2.65976 63.4632 2.62456C63.6456 2.62652 63.6169 2.67024 63.6439 2.69535C63.7326 2.69954 63.76 2.67983 63.7166 2.62926C63.8078 2.61565 63.9663 2.62054 63.9928 2.54251C64.1218 2.53801 63.9813 2.57209 64.0801 2.59781C64.0767 2.49999 64.1446 2.44553 64.2082 2.35683C64.2812 2.27008 64.3326 2.16723 64.3582 2.05675C64.5025 2.13193 64.3802 2.0018 64.5099 1.9556C64.49 1.98338 64.4546 1.92419 64.4223 1.89302C64.3899 1.86185 64.3625 1.85343 64.3522 1.94547C64.3543 1.90762 64.353 1.86966 64.3482 1.83205C64.2983 1.80462 64.2969 1.8526 64.2868 1.8915C64.2767 1.9304 64.2527 1.96145 64.193 1.92082C64.1913 1.87399 64.2198 1.82403 64.2293 1.76848C64.2397 1.73997 64.2396 1.70872 64.2291 1.68027C64.2185 1.65183 64.1982 1.62805 64.1718 1.61317C64.1198 1.70458 64.128 1.52197 64.0678 1.6168C64.0567 1.65886 64.0873 1.67029 64.0998 1.70007L64.0717 1.70105C63.9956 1.63912 63.9991 1.62024 64.025 1.58495C64.0508 1.54967 64.0987 1.51883 64.0612 1.45763C63.9242 1.38427 63.9003 1.47574 63.8755 1.51203C63.8156 1.50682 63.7594 1.48077 63.7167 1.4384C63.8031 1.52706 63.9495 1.45215 63.923 1.38118C63.7921 1.45139 63.6367 1.29741 63.5878 1.23765C63.9103 1.22639 63.7897 1.29103 64.1101 1.2788C64.1244 1.32831 64.0659 1.38453 64.2107 1.44303C64.1669 1.35287 64.2562 1.40393 64.2909 1.41314C64.2228 1.43323 64.3545 1.50364 64.3576 1.56188C64.428 1.57922 64.4143 1.39737 64.5402 1.54196L64.4856 1.58866L64.4278 1.6334C64.4744 1.68491 64.5119 1.56483 64.541 1.71384C64.574 1.61475 64.6708 1.70097 64.5832 1.4894C64.6344 1.5234 64.6744 1.57173 64.6982 1.62834C64.7221 1.68496 64.7287 1.74734 64.7173 1.8077C64.6893 1.90688 64.6533 2.00361 64.6096 2.09693C64.6194 2.07784 64.6381 2.07718 64.6489 2.05805C64.618 2.11038 64.5961 2.16749 64.584 2.22702C64.5888 2.36542 64.6674 2.14076 64.7 2.17921L64.6779 2.29146L64.6409 2.39694C64.6412 2.40318 64.6412 2.40526 64.6485 2.40605C64.6096 2.45533 64.5682 2.49325 64.5925 2.53199C64.6524 2.51178 64.7098 2.48496 64.7637 2.45204C64.7067 2.52302 64.6385 2.58418 64.5617 2.63309C64.6202 2.63729 64.494 2.84382 64.6292 2.7172L64.5913 2.76437C64.5661 2.79129 64.5286 2.82073 64.4901 2.85229C64.4402 2.89031 64.3869 2.92389 64.3311 2.95265L64.3519 3.04153C64.2558 3.0626 64.248 3.05037 64.3421 2.99811C64.2388 3.04306 64.1254 3.05995 64.0135 3.04709C63.8947 3.04603 63.8049 3.03979 63.8538 3.12769C63.5485 3.0675 63.4672 3.09639 63.1332 3.04866C63.3871 3.13044 62.843 3.15152 63.1121 3.19005C62.954 3.22787 62.9215 3.13211 62.7969 3.11563C62.6805 3.15199 62.7315 3.23981 62.8577 3.27395L62.7093 3.23121L62.7099 3.2489L62.582 3.19606C62.445 3.24044 62.5517 3.28464 62.4114 3.29266L62.3825 3.21345L62.2861 3.2564C62.3224 3.2218 62.2394 3.20281 62.1381 3.19385L62.1387 3.21154L62.0151 3.1919C62.1367 3.24391 61.902 3.20522 61.9561 3.26272C61.856 3.26273 61.7561 3.25472 61.6572 3.23877L61.6919 3.18651C61.444 3.12953 61.679 3.26614 61.4768 3.26175L61.4913 3.20081C61.1975 3.29129 61.0007 3.11376 60.7851 3.1765C60.9067 3.19622 60.8737 3.26614 60.872 3.24848C60.644 3.23677 60.418 3.19958 60.1982 3.13761C60.1262 3.22452 60.1082 3.24494 59.9105 3.28102C59.7684 3.26931 59.7472 3.25963 59.6995 3.20608C59.5609 3.23488 59.3034 3.17094 59.2942 3.23586C59.2632 3.18277 59.1693 3.24022 59.0948 3.19386L59.078 3.21945L59.0925 3.15851C58.8438 3.28597 58.6817 3.06138 58.4303 3.17122L58.4726 3.18954L58.3674 3.16091C58.3507 3.18754 58.3919 3.2059 58.3963 3.24117L57.9125 3.23097L58.009 3.18906C57.9044 3.17812 57.8408 3.11575 57.7232 3.14903C57.9141 3.24655 57.5626 3.1463 57.5296 3.21621L57.6348 3.24484C57.4938 3.23414 57.4938 3.23414 57.5062 3.17223C57.3229 3.14321 57.3766 3.28094 57.2096 3.21176L57.3305 3.21379C57.3668 3.17918 57.2816 3.12486 57.2013 3.12349C57.1818 3.13251 57.1244 3.15744 57.1852 3.16782C57.0414 3.13845 56.8224 3.16173 56.76 3.13474C56.6814 3.15103 56.7058 3.19601 56.7471 3.21437C56.4395 3.14801 56.6066 3.21927 56.2981 3.15503L56.2993 3.19041L56.1935 3.1441L56.0396 3.21303L56.0954 3.1694C56.0023 3.14834 55.9066 3.1408 55.8113 3.14703L55.8579 3.20062C55.5721 3.16059 55.524 3.27479 55.2533 3.19152C55.2349 3.2005 55.2762 3.21885 55.2983 3.22745C55.047 3.13204 55.1054 3.31233 54.8537 3.20339C54.8689 3.22161 54.8404 3.2424 54.8503 3.25768L54.7354 3.21898L54.7379 3.28974L54.6456 3.18253L54.573 3.25278L54.5291 3.21785C54.4024 3.34834 54.2299 3.24184 54.0593 3.33844L54.0906 3.25088C53.6671 3.05729 53.1137 3.32145 52.6007 3.21956L52.6083 3.29013L52.3968 3.20063C52.282 3.25256 52.4636 3.26289 52.4273 3.2975C52.2007 3.25124 52.335 3.19028 52.0704 3.16201C51.9344 3.20531 52.1161 3.21564 52.1774 3.24267C51.9185 3.18697 51.6531 3.16714 51.3888 3.18374C51.3884 3.17437 51.3744 3.16131 51.3879 3.15772C51.2001 3.1376 51.0112 3.13097 50.8225 3.13787C50.8236 3.17013 50.8718 3.17678 50.9168 3.18459C50.8473 3.19878 50.7753 3.19446 50.708 3.17208L50.7758 3.23431C50.6353 3.23922 50.3676 3.1798 50.3357 3.24968C50.3524 3.22305 50.3464 3.17013 50.2287 3.17007C50.1605 3.27664 49.9007 3.11589 49.7077 3.16847C49.7305 3.19476 49.8725 3.20439 49.8319 3.20476C49.7378 3.21511 49.6429 3.19306 49.563 3.14226L49.5885 3.18617L49.138 3.11439C49.0698 3.22096 48.7119 3.08655 48.7418 3.16573C48.5803 3.16512 48.8778 3.12243 48.674 3.10454C48.6193 3.14813 48.4897 3.07764 48.4974 3.14822L48.5185 3.15686L48.3765 3.14827L48.4655 3.21914C48.343 3.20154 48.254 3.13067 48.2522 3.07864C48.1357 3.11501 47.9709 3.07909 47.9168 3.1414L47.9601 3.15865C47.6339 3.1242 47.4173 3.33701 47.1619 3.21361C47.1424 3.22262 47.1451 3.24024 47.1847 3.2399L46.9826 3.23967L47.0303 3.29218L46.698 3.20481L46.6992 3.24019C46.4786 3.24789 46.134 3.2245 45.851 3.20729L45.8933 3.22457C45.5849 3.16345 45.5942 3.25169 45.3718 3.2084C45.3777 3.21614 45.3859 3.22172 45.3953 3.22425L45.1867 3.21903L45.2317 3.25393C45.0821 3.1758 44.7994 3.34612 44.8931 3.28346C44.8075 3.24894 44.6612 3.20613 44.6367 3.16218C44.4145 3.15431 44.582 3.20681 44.4444 3.23453C44.2842 3.24013 44.2558 3.17444 44.038 3.20288L44.0393 3.23826C43.9348 3.23045 43.8745 3.20443 43.7325 3.19688L43.7748 3.21416C43.5439 3.13679 43.4855 3.31282 43.305 3.15659C43.208 3.18394 43.0238 3.15808 43.0325 3.22966C42.7442 3.1793 42.5204 3.15482 42.2338 3.12211C42.1878 3.23728 42.172 3.11385 41.9982 3.17826L42.0117 3.11632C41.607 3.10337 41.1412 3.25091 40.6954 3.22272L40.6829 3.28462L40.5941 3.21584C40.1136 3.24095 39.4921 3.25432 39.1087 3.2552C38.944 3.19338 38.7689 3.16411 38.5931 3.16902L38.6142 3.17766C38.2518 3.13138 37.8857 3.12113 37.5213 3.14707C37.5451 3.17332 37.5072 3.19132 37.5495 3.20859C37.4595 3.13984 37.3274 3.20385 37.2462 3.20564L37.3415 3.1596C37.2895 3.13894 37.2332 3.13198 37.1778 3.13939C37.1224 3.14679 37.0698 3.16832 37.0252 3.2019L36.8541 3.13494C36.8428 3.14158 36.8254 3.15053 36.8237 3.16101L36.808 3.12926L36.7181 3.21054C36.6758 3.19326 36.4501 3.17197 36.3796 3.09317C36.3628 3.1198 36.2041 3.14097 36.3276 3.15645L35.7033 3.17825L35.8002 3.14882C35.8116 3.08696 35.6248 3.05076 35.5289 3.07703C35.6556 3.12678 35.5403 3.16519 35.4856 3.21086C35.4011 3.17735 35.5587 3.15621 35.5138 3.12236C35.3895 3.07849 35.2561 3.06666 35.126 3.08797L35.1894 3.11285C35.0448 3.08977 34.984 3.19816 34.8369 3.19288C34.7091 3.14316 34.6149 3.19021 34.6404 3.08305C34.4552 3.06139 34.5699 3.15532 34.5099 3.16575C34.4479 3.14429 34.3821 3.1365 34.3168 3.14291C34.2516 3.14933 34.1885 3.1698 34.1319 3.20291C34.0296 3.04708 33.6349 3.25986 33.597 3.12887L33.4464 3.20289C33.4391 3.1663 33.4192 3.13341 33.3902 3.10989C33.3613 3.08637 33.325 3.07369 33.2877 3.07403C33.1723 3.11244 33.2005 3.17397 33.1653 3.20958L33.0857 3.079C32.4197 3.21895 31.5384 3.13303 30.8092 3.25643C30.438 3.21019 30.0641 3.18844 29.6901 3.19133L29.7323 3.20756L29.3545 3.24785L29.6283 3.18411C29.5541 3.1638 29.4779 3.15179 29.401 3.14829C28.9124 3.23538 28.4148 3.26046 27.92 3.22292C27.5857 3.07728 27.7018 3.35974 27.3835 3.25416C27.411 3.26779 27.4212 3.28931 27.4456 3.30304C27.1516 3.27101 26.86 3.2203 26.5724 3.15121C26.6151 3.29975 26.3495 3.15066 26.3824 3.22869L26.3521 3.16828C26.2764 3.20635 26.0978 3.223 26.1243 3.26584L25.9717 3.19302L25.9603 3.25593C25.7605 3.26291 25.334 3.22154 25.227 3.3503C24.5948 3.2884 23.958 3.28691 23.3255 3.34586C23.1926 3.30251 23.0526 3.28545 22.9132 3.29566L22.7638 3.37381C22.6194 3.35489 22.4631 3.26554 22.3305 3.31601C22.3312 3.32027 22.3331 3.32423 22.336 3.32745C22.3389 3.33067 22.3426 3.33301 22.3468 3.3342C22.2045 3.3501 22.0606 3.33886 21.9226 3.30108C21.7623 3.30668 21.6118 3.35257 21.6579 3.41972C21.6391 3.29744 21.3182 3.44617 21.3182 3.44617L19.9985 3.51622C19.1946 3.55888 18.1004 3.61063 16.9439 3.64164C14.9748 3.78249 12.9963 3.71608 11.0411 3.44353C10.9703 3.38661 10.7817 3.35465 10.8499 3.27934C10.7045 3.26254 10.6448 3.37297 10.6125 3.31367C10.8077 3.26414 10.5446 3.15872 10.7334 3.07503L10.6091 3.06583C10.5816 3.02407 10.7793 3.10781 10.7454 3.03086L10.7847 3.142C10.855 3.1347 10.9208 3.10375 10.9712 3.05422C11.0675 3.09462 11.1332 3.24548 11.3545 3.16899L11.2929 3.16489C11.476 3.1585 11.4016 3.08712 11.4384 3.06708L11.3979 3.0685L11.5498 3.00485C11.4347 3.04846 11.2359 2.96476 11.3401 2.96633C11.5564 2.92543 11.2849 2.99639 11.4456 3.00328C11.5497 2.99964 11.5165 2.94558 11.5101 2.91038L11.6922 2.90402C11.6841 2.85117 11.5715 2.90824 11.6436 2.85467L11.8754 2.90075C11.9124 2.76506 12.1274 2.95447 12.227 2.82388C12.0605 2.79948 12.24 2.77862 12.2114 2.7369L12.6162 2.72277C12.6541 2.70269 12.5108 2.68582 12.5703 2.68999C12.6449 2.64988 12.6973 2.71681 12.7378 2.71435C12.7709 2.67673 13.0396 2.70382 13.025 2.61472C13.2976 2.54374 13.1455 2.722 13.3986 2.66003C13.43 2.60475 13.1901 2.65585 13.3067 2.59551L13.5727 2.60394C13.557 2.57808 13.5338 2.55765 13.5062 2.54539C13.4786 2.53313 13.4479 2.52963 13.4182 2.53536C13.9864 2.35356 14.5733 2.2366 15.1678 2.1867C15.2582 2.11895 15.0997 2.14637 15.0327 2.10703C15.5112 2.17367 15.6958 1.94218 16.1008 1.93429L16.11 1.9871C16.7289 1.86831 17.3567 1.80212 17.9868 1.78925L17.9121 1.82832C18.0208 1.8662 18.1341 1.88956 18.2489 1.89782C18.2636 1.87022 18.1691 1.78809 18.355 1.80348C18.3172 1.82355 18.2398 1.84605 18.2636 1.87022C19.1235 1.73787 19.9903 1.65542 20.8596 1.62329C22.079 1.6328 23.3973 1.49404 24.5948 1.5064C24.4125 1.50547 24.4951 1.6349 24.6294 1.60208C25.0007 1.37449 25.2825 1.62616 25.6666 1.46793C26.3223 1.42133 26.9806 1.42726 27.6353 1.48565L27.6467 1.42275C27.7425 1.39335 27.7701 1.43615 27.8713 1.44095L27.8707 1.42326C28.1104 1.39613 28.4021 1.45575 28.5396 1.42386L28.5493 1.49437C28.6922 1.49876 28.6224 1.43868 28.7696 1.4773L28.7684 1.44192L28.9404 1.50572C28.9215 1.38239 29.3431 1.49165 29.4588 1.43344C29.7289 1.47397 30.0023 1.4885 30.2751 1.47682C30.326 1.41357 30.6698 1.41094 30.8884 1.37726C31.315 1.38946 31.925 1.40566 32.4679 1.37837L32.4592 1.45785L32.6011 1.46227C32.6005 1.44458 32.6179 1.43564 32.5998 1.42689C32.7092 1.33556 32.9269 1.45402 33.0406 1.39692C32.9691 1.46922 32.9368 1.40888 32.8608 1.41049C32.7444 1.44893 32.8565 1.52525 33.0134 1.48538L33.0128 1.46769L33.1185 1.50984C33.1299 1.44798 33.2268 1.41855 33.2392 1.35664C33.6596 1.40917 34.0825 1.43927 34.5061 1.4468C34.4558 1.37771 34.8526 1.46387 34.7546 1.34331C35.0438 1.38843 34.708 1.44079 34.8402 1.52578C34.9203 1.52298 35.0059 1.55646 35.02 1.51221C34.9814 1.48334 35.0851 1.43908 35.017 1.42792L35.2101 1.4368C35.2285 1.42783 35.1862 1.41055 35.1641 1.40299C35.5582 1.47153 35.8614 1.32237 36.215 1.39442C36.2416 1.43829 36.0748 1.40557 36.1013 1.45048C36.4567 1.54226 36.4112 1.37298 36.7468 1.43732L36.6781 1.37721C36.7263 1.40867 36.7808 1.4291 36.8378 1.43701C36.8948 1.44493 36.9529 1.44014 37.0079 1.42299C37.0387 1.35211 36.8579 1.36468 36.7732 1.327C36.8939 1.32278 37.1999 1.3444 37.1073 1.40806C37.252 1.43218 37.305 1.36886 37.3824 1.34948C37.3831 1.36717 37.2476 1.39691 37.3321 1.42938C37.5782 1.39733 37.8264 1.38344 38.0745 1.38783C38.0739 1.37014 38.0886 1.34358 38.0727 1.33476C38.2622 1.45212 38.2411 1.29345 38.5075 1.31436Z" fill="black"/>
<path d="M51.3652 1.91844L51.2301 1.92941C51.2294 1.9086 51.2285 1.88363 51.1631 1.85986L51.3652 1.91844Z" fill="black"/>
<path d="M46.7441 1.84356C46.7272 1.83618 46.7112 1.82696 46.6963 1.81606C46.7288 1.82117 46.7397 1.83538 46.7441 1.84356Z" fill="black"/>
<path d="M45.6169 1.68408C45.7219 1.7075 45.6279 1.73058 45.5735 1.75332C45.5718 1.73463 45.5783 1.71148 45.6169 1.68408Z" fill="black"/>
<path d="M49.8422 2.3334C49.8189 2.3238 49.8049 2.31074 49.8094 2.29079C49.8403 2.30846 49.847 2.32177 49.8422 2.3334Z" fill="black"/>
<path d="M59.8078 2.47949L59.7676 2.49236C59.7795 2.48436 59.7934 2.4799 59.8078 2.47949Z" fill="black"/>
<path d="M59.2498 2.57984C59.2119 2.57826 59.1742 2.57223 59.1377 2.56188C59.176 2.55863 59.2145 2.5648 59.2498 2.57984Z" fill="black"/>
<path d="M52.2176 2.10353C52.1804 2.10127 52.1443 2.09002 52.1123 2.07075C52.15 2.06995 52.187 2.08146 52.2176 2.10353Z" fill="black"/>
<path d="M59.0231 2.54832L58.8836 2.55319C58.8828 2.54697 58.8826 2.5407 58.883 2.53445L59.0231 2.54832Z" fill="black"/>
<path d="M59.9824 2.47835C59.9241 2.47733 59.8657 2.47936 59.8076 2.48446C59.8636 2.46298 59.9251 2.46083 59.9824 2.47835Z" fill="black"/>
<path d="M53.4941 2.48615L53.4795 2.48665C53.3726 2.43829 53.44 2.45782 53.4941 2.48615Z" fill="black"/>
<path d="M58.4225 2.41509L58.4038 2.41575L58.3643 2.38795L58.4225 2.41509Z" fill="black"/>
<path d="M60.5811 2.46474C60.5571 2.46334 60.5338 2.45669 60.5127 2.44525L60.5918 2.44249C60.5864 2.4489 60.5827 2.45655 60.5811 2.46474Z" fill="black"/>
<path d="M55.5856 2.40186C55.6244 2.43905 55.6377 2.46255 55.6384 2.48128C55.5924 2.47767 55.5637 2.46096 55.5856 2.40186Z" fill="black"/>
</g>
</mask>
<g mask="url(#mask0_5_3253)">
<rect x="0.460938" y="0.10791" width="74.4375" height="5" fill="#202020"/>
</g>
<defs>
<clipPath id="clip0_5_3253">
<rect width="54.2201" height="5" fill="white" transform="translate(10.5693 0.10791)"/>
</clipPath>
</defs>
</svg>
