<svg width="46" height="36" viewBox="0 0 46 36" fill="none" xmlns="http://www.w3.org/2000/svg">
<path d="M14.741 0.282818L7.34516 0.223652C3.79516 0.223652 0.895996 3.12282 0.895996 6.73199V14.1278C0.895996 17.6778 3.79516 20.577 7.34516 20.577H15.3918C14.8002 24.7778 12.0785 28.3278 8.23266 30.0437C6.99016 30.517 6.221 31.8187 6.45766 33.1203C6.7535 34.422 7.87766 35.3687 9.2385 35.3687C9.53433 35.3687 9.88933 35.3095 10.2443 35.1912C17.8177 32.2328 21.2493 24.3637 21.2493 17.7962V6.73199C21.2493 3.12282 18.3502 0.223651 14.741 0.282818ZM38.8218 0.282818L31.426 0.223652C27.8168 0.223652 24.9177 3.12282 24.9177 6.73199V14.1278C24.9177 17.6778 27.8168 20.577 31.426 20.577H39.4135C38.8218 24.7778 36.1002 28.3278 32.2543 30.0437C31.0118 30.517 30.2427 31.8187 30.5385 33.1203C30.7752 34.422 31.8993 35.3687 33.2602 35.3687C33.6152 35.3687 33.911 35.3095 34.266 35.1912C41.8393 32.2328 45.271 24.3637 45.271 17.7962V6.73199C45.271 3.12282 42.3718 0.223651 38.8218 0.282818ZM6.45766 14.1278V6.73199C6.45766 6.19949 6.87183 5.78532 7.34516 5.78532H14.741C15.2735 5.78532 15.6877 6.19949 15.6877 6.73199V15.0153H7.34516C6.87183 15.0153 6.45766 14.6603 6.45766 14.1278ZM30.4793 14.1278V6.73199C30.4793 6.19949 30.8935 5.78532 31.426 5.78532H38.8218C39.2952 5.78532 39.7093 6.19949 39.7093 6.73199V15.0153H31.426C30.8935 15.0153 30.4793 14.6603 30.4793 14.1278Z" fill="white"/>
</svg>
